<?xml version="1.0" encoding="UTF-8" standalone="no"?>
<!DOCTYPE svg PUBLIC "-//W3C//DTD SVG 1.1//EN"
 "http://www.w3.org/Graphics/SVG/1.1/DTD/svg11.dtd">
<!-- Generated by graphviz version 2.43.0 (0)
 -->
<!-- Title: example3 Pages: 1 -->
<svg width="886pt" height="708pt"
 viewBox="0.00 0.00 886.09 707.93" xmlns="http://www.w3.org/2000/svg" xmlns:xlink="http://www.w3.org/1999/xlink">
<g id="graph0" class="graph" transform="scale(1 1) rotate(0) translate(4 703.93)">
<title>example3</title>
<polygon fill="white" stroke="transparent" points="-4,4 -4,-703.93 882.09,-703.93 882.09,4 -4,4"/>
<!-- N0 -->
<g id="node1" class="node">
<title>N0</title>
<ellipse fill="none" stroke="black" cx="218.09" cy="-681.93" rx="45.49" ry="18"/>
<text text-anchor="start" x="191.09" y="-678.23" font-family="Times,serif" font-size="14.00">Module</text>
</g>
<!-- N1 -->
<g id="node2" class="node">
<title>N1</title>
<ellipse fill="none" stroke="black" cx="218.09" cy="-601.06" rx="56.64" ry="26.74"/>
<text text-anchor="start" x="186.09" y="-604.86" font-family="Times,serif" font-size="14.00">Function</text>
<text text-anchor="start" x="200.09" y="-589.86" font-family="Times,serif" font-size="14.00">main</text>
</g>
<!-- N0&#45;&gt;N1 -->
<g id="edge1" class="edge">
<title>N0&#45;&gt;N1</title>
<path fill="none" stroke="black" d="M218.09,-663.82C218.09,-656.33 218.09,-647.24 218.09,-638.36"/>
<polygon fill="black" stroke="black" points="221.59,-638.14 218.09,-628.14 214.59,-638.14 221.59,-638.14"/>
</g>
<!-- N2 -->
<g id="node3" class="node">
<title>N2</title>
<ellipse fill="none" stroke="black" cx="113.09" cy="-520.19" rx="113.18" ry="18"/>
<text text-anchor="start" x="34.09" y="-516.49" font-family="Times,serif" font-size="14.00">Parameters: Expr List</text>
</g>
<!-- N1&#45;&gt;N2 -->
<g id="edge2" class="edge">
<title>N1&#45;&gt;N2</title>
<path fill="none" stroke="black" d="M188.56,-577.88C174.47,-567.29 157.62,-554.64 143.42,-543.97"/>
<polygon fill="black" stroke="black" points="145.5,-541.16 135.41,-537.95 141.3,-546.76 145.5,-541.16"/>
</g>
<!-- N3 -->
<g id="node4" class="node">
<title>N3</title>
<ellipse fill="none" stroke="black" cx="331.09" cy="-520.19" rx="79.89" ry="18"/>
<text text-anchor="start" x="277.59" y="-516.49" font-family="Times,serif" font-size="14.00">Statement List</text>
</g>
<!-- N1&#45;&gt;N3 -->
<g id="edge3" class="edge">
<title>N1&#45;&gt;N3</title>
<path fill="none" stroke="black" d="M248.97,-578.51C264.63,-567.58 283.62,-554.33 299.39,-543.32"/>
<polygon fill="black" stroke="black" points="301.58,-546.05 307.78,-537.46 297.58,-540.31 301.58,-546.05"/>
</g>
<!-- N31 -->
<g id="node32" class="node">
<title>N31</title>
<ellipse fill="none" stroke="black" cx="32.09" cy="-448.19" rx="31.4" ry="18"/>
<text text-anchor="start" x="16.09" y="-444.49" font-family="Times,serif" font-size="14.00">argc</text>
</g>
<!-- N2&#45;&gt;N31 -->
<g id="edge31" class="edge">
<title>N2&#45;&gt;N31</title>
<path fill="none" stroke="black" d="M93.48,-502.25C82.37,-492.65 68.38,-480.55 56.56,-470.33"/>
<polygon fill="black" stroke="black" points="58.64,-467.51 48.78,-463.62 54.06,-472.8 58.64,-467.51"/>
</g>
<!-- N32 -->
<g id="node33" class="node">
<title>N32</title>
<ellipse fill="none" stroke="black" cx="113.09" cy="-448.19" rx="31.7" ry="18"/>
<text text-anchor="start" x="96.59" y="-444.49" font-family="Times,serif" font-size="14.00">argv</text>
</g>
<!-- N2&#45;&gt;N32 -->
<g id="edge32" class="edge">
<title>N2&#45;&gt;N32</title>
<path fill="none" stroke="black" d="M113.09,-501.89C113.09,-494.17 113.09,-484.9 113.09,-476.3"/>
<polygon fill="black" stroke="black" points="116.59,-476.3 113.09,-466.3 109.59,-476.3 116.59,-476.3"/>
</g>
<!-- N4 -->
<g id="node5" class="node">
<title>N4</title>
<ellipse fill="none" stroke="black" cx="190.09" cy="-448.19" rx="27" ry="18"/>
<text text-anchor="start" x="178.09" y="-444.49" font-family="Times,serif" font-size="14.00">Let</text>
</g>
<!-- N3&#45;&gt;N4 -->
<g id="edge4" class="edge">
<title>N3&#45;&gt;N4</title>
<path fill="none" stroke="black" d="M299.45,-503.48C275.75,-491.72 243.55,-475.73 220.23,-464.15"/>
<polygon fill="black" stroke="black" points="221.65,-460.95 211.14,-459.64 218.54,-467.22 221.65,-460.95"/>
</g>
<!-- N5 -->
<g id="node6" class="node">
<title>N5</title>
<ellipse fill="none" stroke="black" cx="331.09" cy="-448.19" rx="27" ry="18"/>
<text text-anchor="start" x="319.09" y="-444.49" font-family="Times,serif" font-size="14.00">Let</text>
</g>
<!-- N3&#45;&gt;N5 -->
<g id="edge5" class="edge">
<title>N3&#45;&gt;N5</title>
<path fill="none" stroke="black" d="M331.09,-501.89C331.09,-494.17 331.09,-484.9 331.09,-476.3"/>
<polygon fill="black" stroke="black" points="334.59,-476.3 331.09,-466.3 327.59,-476.3 334.59,-476.3"/>
</g>
<!-- N6 -->
<g id="node7" class="node">
<title>N6</title>
<ellipse fill="none" stroke="black" cx="542.09" cy="-448.19" rx="27" ry="18"/>
<text text-anchor="start" x="536.59" y="-444.49" font-family="Times,serif" font-size="14.00">If</text>
</g>
<!-- N3&#45;&gt;N6 -->
<g id="edge6" class="edge">
<title>N3&#45;&gt;N6</title>
<path fill="none" stroke="black" d="M374.04,-504.94C413.91,-491.71 472.44,-472.3 508.85,-460.22"/>
<polygon fill="black" stroke="black" points="510.11,-463.49 518.5,-457.02 507.91,-456.84 510.11,-463.49"/>
</g>
<!-- N7 -->
<g id="node8" class="node">
<title>N7</title>
<ellipse fill="none" stroke="black" cx="777.09" cy="-448.19" rx="42.79" ry="18"/>
<text text-anchor="start" x="752.09" y="-444.49" font-family="Times,serif" font-size="14.00">Return</text>
</g>
<!-- N3&#45;&gt;N7 -->
<g id="edge7" class="edge">
<title>N3&#45;&gt;N7</title>
<path fill="none" stroke="black" d="M394.99,-509.16C484.73,-495.08 646.19,-469.74 727.48,-456.98"/>
<polygon fill="black" stroke="black" points="728.12,-460.42 737.45,-455.41 727.03,-453.5 728.12,-460.42"/>
</g>
<!-- N29 -->
<g id="node30" class="node">
<title>N29</title>
<ellipse fill="none" stroke="black" cx="104.09" cy="-358.84" rx="27" ry="18"/>
<text text-anchor="start" x="99.59" y="-355.14" font-family="Times,serif" font-size="14.00">x</text>
</g>
<!-- N4&#45;&gt;N29 -->
<g id="edge29" class="edge">
<title>N4&#45;&gt;N29</title>
<path fill="none" stroke="black" d="M175.89,-432.77C162.2,-418.86 141.29,-397.62 125.56,-381.65"/>
<polygon fill="black" stroke="black" points="127.82,-378.95 118.31,-374.28 122.83,-383.86 127.82,-378.95"/>
</g>
<!-- N30 -->
<g id="node31" class="node">
<title>N30</title>
<ellipse fill="none" stroke="black" cx="176.09" cy="-358.84" rx="27" ry="18"/>
<text text-anchor="start" x="171.09" y="-355.14" font-family="Times,serif" font-size="14.00">0</text>
</g>
<!-- N4&#45;&gt;N30 -->
<g id="edge30" class="edge">
<title>N4&#45;&gt;N30</title>
<path fill="none" stroke="black" d="M187.32,-429.93C185.36,-417.65 182.67,-400.9 180.42,-386.86"/>
<polygon fill="black" stroke="black" points="183.84,-386.08 178.8,-376.76 176.93,-387.19 183.84,-386.08"/>
</g>
<!-- N25 -->
<g id="node26" class="node">
<title>N25</title>
<ellipse fill="none" stroke="black" cx="248.09" cy="-358.84" rx="27" ry="18"/>
<text text-anchor="start" x="243.59" y="-355.14" font-family="Times,serif" font-size="14.00">y</text>
</g>
<!-- N5&#45;&gt;N25 -->
<g id="edge25" class="edge">
<title>N5&#45;&gt;N25</title>
<path fill="none" stroke="black" d="M317.01,-432.37C303.81,-418.48 283.92,-397.55 268.9,-381.73"/>
<polygon fill="black" stroke="black" points="271.39,-379.27 261.96,-374.44 266.31,-384.1 271.39,-379.27"/>
</g>
<!-- N26 -->
<g id="node27" class="node">
<title>N26</title>
<ellipse fill="none" stroke="black" cx="338.09" cy="-358.84" rx="45.01" ry="26.74"/>
<text text-anchor="start" x="314.09" y="-362.64" font-family="Times,serif" font-size="14.00">Binary</text>
<text text-anchor="start" x="331.59" y="-347.64" font-family="Times,serif" font-size="14.00">+</text>
</g>
<!-- N5&#45;&gt;N26 -->
<g id="edge26" class="edge">
<title>N5&#45;&gt;N26</title>
<path fill="none" stroke="black" d="M332.47,-429.93C333.25,-420.24 334.25,-407.77 335.19,-396.04"/>
<polygon fill="black" stroke="black" points="338.68,-396.26 335.99,-386.01 331.7,-395.7 338.68,-396.26"/>
</g>
<!-- N9 -->
<g id="node10" class="node">
<title>N9</title>
<ellipse fill="none" stroke="black" cx="468.09" cy="-358.84" rx="66.44" ry="35.21"/>
<text text-anchor="start" x="429.09" y="-369.64" font-family="Times,serif" font-weight="bold" font-size="14.00">Condition</text>
<text text-anchor="start" x="444.09" y="-355.64" font-family="Times,serif" font-size="14.00">Binary</text>
<text text-anchor="start" x="460.09" y="-341.64" font-family="Times,serif" font-size="14.00">gt</text>
</g>
<!-- N6&#45;&gt;N9 -->
<g id="edge9" class="edge">
<title>N6&#45;&gt;N9</title>
<path fill="none" stroke="black" d="M529.2,-431.97C521.53,-422.92 511.41,-410.97 501.62,-399.41"/>
<polygon fill="black" stroke="black" points="504.06,-396.88 494.92,-391.51 498.72,-401.4 504.06,-396.88"/>
</g>
<!-- N10 -->
<g id="node11" class="node">
<title>N10</title>
<ellipse fill="none" stroke="black" cx="639.09" cy="-358.84" rx="86.95" ry="25.41"/>
<text text-anchor="start" x="610.59" y="-362.64" font-family="Times,serif" font-weight="bold" font-size="14.00">If Body</text>
<text text-anchor="start" x="585.59" y="-348.64" font-family="Times,serif" font-size="14.00">Statement List</text>
</g>
<!-- N6&#45;&gt;N10 -->
<g id="edge10" class="edge">
<title>N6&#45;&gt;N10</title>
<path fill="none" stroke="black" d="M557.67,-433.16C570.47,-421.63 589.05,-404.9 605.23,-390.33"/>
<polygon fill="black" stroke="black" points="607.86,-392.67 612.95,-383.38 603.17,-387.47 607.86,-392.67"/>
</g>
<!-- N11 -->
<g id="node12" class="node">
<title>N11</title>
<ellipse fill="none" stroke="black" cx="775.09" cy="-358.84" rx="30.59" ry="18"/>
<text text-anchor="start" x="759.59" y="-355.14" font-family="Times,serif" font-size="14.00">Else</text>
</g>
<!-- N6&#45;&gt;N11 -->
<g id="edge11" class="edge">
<title>N6&#45;&gt;N11</title>
<path fill="none" stroke="black" d="M568.42,-443.72C606.89,-437.83 679.87,-423.56 735.09,-394.19 741.39,-390.84 747.56,-386.35 753.1,-381.71"/>
<polygon fill="black" stroke="black" points="755.56,-384.21 760.7,-374.95 750.9,-378.98 755.56,-384.21"/>
</g>
<!-- N8 -->
<g id="node9" class="node">
<title>N8</title>
<ellipse fill="none" stroke="black" cx="851.09" cy="-358.84" rx="27" ry="18"/>
<text text-anchor="start" x="846.59" y="-355.14" font-family="Times,serif" font-size="14.00">x</text>
</g>
<!-- N7&#45;&gt;N8 -->
<g id="edge8" class="edge">
<title>N7&#45;&gt;N8</title>
<path fill="none" stroke="black" d="M791.01,-430.76C802.45,-417.25 818.81,-397.95 831.56,-382.89"/>
<polygon fill="black" stroke="black" points="834.43,-384.92 838.22,-375.02 829.09,-380.39 834.43,-384.92"/>
</g>
<!-- N23 -->
<g id="node24" class="node">
<title>N23</title>
<ellipse fill="none" stroke="black" cx="439.09" cy="-269.48" rx="27" ry="18"/>
<text text-anchor="start" x="434.59" y="-265.78" font-family="Times,serif" font-size="14.00">x</text>
</g>
<!-- N9&#45;&gt;N23 -->
<g id="edge23" class="edge">
<title>N9&#45;&gt;N23</title>
<path fill="none" stroke="black" d="M456.79,-323.81C453.86,-314.96 450.73,-305.54 447.94,-297.13"/>
<polygon fill="black" stroke="black" points="451.2,-295.86 444.73,-287.47 444.56,-298.06 451.2,-295.86"/>
</g>
<!-- N24 -->
<g id="node25" class="node">
<title>N24</title>
<ellipse fill="none" stroke="black" cx="511.09" cy="-269.48" rx="27" ry="18"/>
<text text-anchor="start" x="506.09" y="-265.78" font-family="Times,serif" font-size="14.00">3</text>
</g>
<!-- N9&#45;&gt;N24 -->
<g id="edge24" class="edge">
<title>N9&#45;&gt;N24</title>
<path fill="none" stroke="black" d="M484.59,-324.31C489.25,-314.84 494.25,-304.7 498.63,-295.8"/>
<polygon fill="black" stroke="black" points="501.82,-297.24 503.1,-286.72 495.54,-294.15 501.82,-297.24"/>
</g>
<!-- N16 -->
<g id="node17" class="node">
<title>N16</title>
<ellipse fill="none" stroke="black" cx="639.09" cy="-269.48" rx="27" ry="18"/>
<text text-anchor="start" x="632.59" y="-265.78" font-family="Times,serif" font-size="14.00">=</text>
</g>
<!-- N10&#45;&gt;N16 -->
<g id="edge16" class="edge">
<title>N10&#45;&gt;N16</title>
<path fill="none" stroke="black" d="M639.09,-333.04C639.09,-322.03 639.09,-309.04 639.09,-297.76"/>
<polygon fill="black" stroke="black" points="642.59,-297.58 639.09,-287.58 635.59,-297.58 642.59,-297.58"/>
</g>
<!-- N12 -->
<g id="node13" class="node">
<title>N12</title>
<ellipse fill="none" stroke="black" cx="775.09" cy="-269.48" rx="79.89" ry="18"/>
<text text-anchor="start" x="721.59" y="-265.78" font-family="Times,serif" font-size="14.00">Statement List</text>
</g>
<!-- N11&#45;&gt;N12 -->
<g id="edge12" class="edge">
<title>N11&#45;&gt;N12</title>
<path fill="none" stroke="black" d="M775.09,-340.58C775.09,-328.37 775.09,-311.76 775.09,-297.77"/>
<polygon fill="black" stroke="black" points="778.59,-297.7 775.09,-287.7 771.59,-297.7 778.59,-297.7"/>
</g>
<!-- N13 -->
<g id="node14" class="node">
<title>N13</title>
<ellipse fill="none" stroke="black" cx="775.09" cy="-188.61" rx="27" ry="18"/>
<text text-anchor="start" x="768.59" y="-184.91" font-family="Times,serif" font-size="14.00">=</text>
</g>
<!-- N12&#45;&gt;N13 -->
<g id="edge13" class="edge">
<title>N12&#45;&gt;N13</title>
<path fill="none" stroke="black" d="M775.09,-251.37C775.09,-241.34 775.09,-228.45 775.09,-217.03"/>
<polygon fill="black" stroke="black" points="778.59,-216.69 775.09,-206.69 771.59,-216.69 778.59,-216.69"/>
</g>
<!-- N14 -->
<g id="node15" class="node">
<title>N14</title>
<ellipse fill="none" stroke="black" cx="769.09" cy="-98.87" rx="27" ry="18"/>
<text text-anchor="start" x="764.59" y="-95.17" font-family="Times,serif" font-size="14.00">y</text>
</g>
<!-- N13&#45;&gt;N14 -->
<g id="edge14" class="edge">
<title>N13&#45;&gt;N14</title>
<path fill="none" stroke="black" d="M773.9,-170.28C773.06,-157.94 771.91,-141.12 770.95,-127.01"/>
<polygon fill="black" stroke="black" points="774.43,-126.61 770.25,-116.87 767.44,-127.09 774.43,-126.61"/>
</g>
<!-- N15 -->
<g id="node16" class="node">
<title>N15</title>
<ellipse fill="none" stroke="black" cx="841.09" cy="-98.87" rx="27" ry="18"/>
<text text-anchor="start" x="836.09" y="-95.17" font-family="Times,serif" font-size="14.00">4</text>
</g>
<!-- N13&#45;&gt;N15 -->
<g id="edge15" class="edge">
<title>N13&#45;&gt;N15</title>
<path fill="none" stroke="black" d="M786.89,-171.92C797.03,-158.45 811.79,-138.82 823.35,-123.45"/>
<polygon fill="black" stroke="black" points="826.18,-125.52 829.39,-115.42 820.58,-121.31 826.18,-125.52"/>
</g>
<!-- N17 -->
<g id="node18" class="node">
<title>N17</title>
<ellipse fill="none" stroke="black" cx="555.09" cy="-188.61" rx="27" ry="18"/>
<text text-anchor="start" x="550.59" y="-184.91" font-family="Times,serif" font-size="14.00">y</text>
</g>
<!-- N16&#45;&gt;N17 -->
<g id="edge17" class="edge">
<title>N16&#45;&gt;N17</title>
<path fill="none" stroke="black" d="M624.07,-254.38C611.25,-242.34 592.61,-224.84 577.94,-211.07"/>
<polygon fill="black" stroke="black" points="579.95,-208.15 570.26,-203.85 575.16,-213.25 579.95,-208.15"/>
</g>
<!-- N18 -->
<g id="node19" class="node">
<title>N18</title>
<ellipse fill="none" stroke="black" cx="645.09" cy="-188.61" rx="45.01" ry="26.74"/>
<text text-anchor="start" x="621.09" y="-192.41" font-family="Times,serif" font-size="14.00">Binary</text>
<text text-anchor="start" x="638.59" y="-177.41" font-family="Times,serif" font-size="14.00">+</text>
</g>
<!-- N16&#45;&gt;N18 -->
<g id="edge18" class="edge">
<title>N16&#45;&gt;N18</title>
<path fill="none" stroke="black" d="M640.39,-251.37C640.96,-243.88 641.65,-234.79 642.33,-225.91"/>
<polygon fill="black" stroke="black" points="645.84,-225.93 643.11,-215.69 638.86,-225.4 645.84,-225.93"/>
</g>
<!-- N19 -->
<g id="node20" class="node">
<title>N19</title>
<ellipse fill="none" stroke="black" cx="566.09" cy="-98.87" rx="27" ry="18"/>
<text text-anchor="start" x="561.09" y="-95.17" font-family="Times,serif" font-size="14.00">3</text>
</g>
<!-- N18&#45;&gt;N19 -->
<g id="edge19" class="edge">
<title>N18&#45;&gt;N19</title>
<path fill="none" stroke="black" d="M624.33,-164.56C612.6,-151.52 597.99,-135.3 586.34,-122.36"/>
<polygon fill="black" stroke="black" points="588.81,-119.87 579.52,-114.78 583.61,-124.56 588.81,-119.87"/>
</g>
<!-- N20 -->
<g id="node21" class="node">
<title>N20</title>
<ellipse fill="none" stroke="black" cx="656.09" cy="-98.87" rx="45.01" ry="26.74"/>
<text text-anchor="start" x="632.09" y="-102.67" font-family="Times,serif" font-size="14.00">Binary</text>
<text text-anchor="start" x="652.59" y="-87.67" font-family="Times,serif" font-size="14.00">*</text>
</g>
<!-- N18&#45;&gt;N20 -->
<g id="edge20" class="edge">
<title>N18&#45;&gt;N20</title>
<path fill="none" stroke="black" d="M648.33,-161.76C649.35,-153.62 650.5,-144.48 651.59,-135.77"/>
<polygon fill="black" stroke="black" points="655.06,-136.2 652.83,-125.84 648.12,-135.33 655.06,-136.2"/>
</g>
<!-- N21 -->
<g id="node22" class="node">
<title>N21</title>
<ellipse fill="none" stroke="black" cx="620.09" cy="-18" rx="27" ry="18"/>
<text text-anchor="start" x="615.09" y="-14.3" font-family="Times,serif" font-size="14.00">3</text>
</g>
<!-- N20&#45;&gt;N21 -->
<g id="edge21" class="edge">
<title>N20&#45;&gt;N21</title>
<path fill="none" stroke="black" d="M644.5,-72.48C640.46,-63.62 635.91,-53.67 631.85,-44.77"/>
<polygon fill="black" stroke="black" points="635.02,-43.28 627.68,-35.64 628.65,-46.19 635.02,-43.28"/>
</g>
<!-- N22 -->
<g id="node23" class="node">
<title>N22</title>
<ellipse fill="none" stroke="black" cx="692.09" cy="-18" rx="27" ry="18"/>
<text text-anchor="start" x="687.09" y="-14.3" font-family="Times,serif" font-size="14.00">4</text>
</g>
<!-- N20&#45;&gt;N22 -->
<g id="edge22" class="edge">
<title>N20&#45;&gt;N22</title>
<path fill="none" stroke="black" d="M667.68,-72.48C671.72,-63.62 676.27,-53.67 680.33,-44.77"/>
<polygon fill="black" stroke="black" points="683.53,-46.19 684.5,-35.64 677.16,-43.28 683.53,-46.19"/>
</g>
<!-- N27 -->
<g id="node28" class="node">
<title>N27</title>
<ellipse fill="none" stroke="black" cx="280.09" cy="-269.48" rx="27" ry="18"/>
<text text-anchor="start" x="275.09" y="-265.78" font-family="Times,serif" font-size="14.00">3</text>
</g>
<!-- N26&#45;&gt;N27 -->
<g id="edge27" class="edge">
<title>N26&#45;&gt;N27</title>
<path fill="none" stroke="black" d="M321.93,-333.5C313.92,-321.43 304.27,-306.9 296.25,-294.82"/>
<polygon fill="black" stroke="black" points="298.95,-292.55 290.5,-286.16 293.11,-296.42 298.95,-292.55"/>
</g>
<!-- N28 -->
<g id="node29" class="node">
<title>N28</title>
<ellipse fill="none" stroke="black" cx="352.09" cy="-269.48" rx="27" ry="18"/>
<text text-anchor="start" x="347.59" y="-265.78" font-family="Times,serif" font-size="14.00">y</text>
</g>
<!-- N26&#45;&gt;N28 -->
<g id="edge28" class="edge">
<title>N26&#45;&gt;N28</title>
<path fill="none" stroke="black" d="M342.29,-331.63C344.01,-320.92 345.99,-308.54 347.72,-297.73"/>
<polygon fill="black" stroke="black" points="351.23,-297.99 349.35,-287.57 344.31,-296.89 351.23,-297.99"/>
</g>
</g>
</svg>
